<?xml version="1.0" encoding="UTF-8" standalone="no"?>
<!-- Created with Inkscape (http://www.inkscape.org/) -->

<svg
   width="1200"
   height="630"
   viewBox="0 0 1200 630"
   version="1.1"
   id="svg1"
   xml:space="preserve"
   xmlns="http://www.w3.org/2000/svg"
   xmlns:svg="http://www.w3.org/2000/svg"><defs
     id="defs1" /><g
     id="layer1"><rect
       style="fill:#000000;stroke-width:16;stroke-linecap:round;stroke-linejoin:round"
       id="rect1"
       width="1200"
       height="630"
       x="0"
       y="0" /><g
       id="g2"
       transform="translate(32,2)"><circle
         style="fill:none;fill-opacity:1;stroke:#ffffff;stroke-width:4;stroke-linecap:round;stroke-linejoin:round;stroke-dasharray:none;stroke-opacity:0.25"
         id="path4"
         cx="180"
         cy="300"
         r="120" /><path
         id="rect11"
         style="fill:#ffffff;fill-opacity:1;stroke-width:120;stroke-linecap:round;stroke-linejoin:round"
         d="m 105,225 v 120 a 45,45 0 0 0 45,45 45,45 0 0 0 45,-45 v -30 h 60 v -30 h -60 v -30 h 60 V 225 H 195 165 V 255 302.57812 315 345 a 15,15 0 0 1 -15,15 15,15 0 0 1 -15,-15 V 225 Z" /></g><path
       id="text1"
       style="font-weight:900;font-size:160px;font-family:Roboto;-inkscape-font-specification:'Roboto Heavy';fill:#ffffff;fill-opacity:1;stroke:none;stroke-width:4;stroke-linecap:round;stroke-linejoin:round;stroke-dasharray:none;stroke-opacity:0.25"
       d="m 754.03125,180.35938 c -10.26041,0 -18.22917,2.65625 -23.90625,7.96874 -5.67708,5.3125 -8.51562,12.78647 -8.51562,22.42188 v 6.71875 H 709.34375 V 235.75 h 12.26563 V 302 h 26.40624 v -66.25 h 26.64063 V 302 h 26.48437 V 235.75 H 817.625 v -18.28125 h -16.48438 v -1.48437 c 10e-6,-9.16666 5.02606,-13.75 15.07813,-13.75 6.24999,-10e-6 12.21355,0.7552 17.89063,2.26562 l 4.375,1.17188 3.67187,-20.78126 c -10.67707,-3.02083 -19.8698,-4.53124 -27.57813,-4.53124 -12.34373,0 -21.95313,2.8125 -28.82812,8.4375 -7.23958,5.98957 -10.9375,14.60938 -11.09375,25.85937 v 2.8125 h -26.64063 v -6.48437 c 0,-6.875 3.98439,-10.3125 11.95313,-10.3125 2.70833,0 4.86979,0.23437 6.48437,0.70312 L 766.375,182 c -4.47916,-1.09375 -8.59375,-1.64062 -12.34375,-1.64062 z M 1083.7188,182 v 120 h 26.4062 V 182 Z m -115.85942,0.85938 c -4.32292,0 -7.83855,1.19791 -10.54688,3.59374 -2.70833,2.39584 -4.0625,5.46876 -4.0625,9.21876 0,3.74999 1.35417,6.82291 4.0625,9.21874 2.70833,2.39584 6.22396,3.59376 10.54688,3.59376 4.32291,-10e-6 7.83854,-1.19792 10.54687,-3.59376 2.70833,-2.39583 4.0625,-5.46875 4.0625,-9.21874 0,-3.75 -1.35417,-6.82292 -4.0625,-9.21876 -2.70833,-2.39583 -6.22396,-3.59374 -10.54687,-3.59374 z M 430.20312,188.25 v 75 c 0.15625,12.49999 4.21876,22.34376 12.1875,29.53125 7.96875,7.18749 18.88023,10.78125 32.73438,10.78125 9.16666,0 17.10938,-1.61459 23.82812,-4.84375 6.71875,-3.22916 11.87501,-7.91667 15.46876,-14.0625 3.59374,-6.19791 5.39062,-13.51563 5.39062,-21.95313 V 188.25 h -27.42188 v 74.29688 c 0,7.03124 -1.45833,12.10937 -4.375,15.23437 -2.91666,3.125 -7.21354,4.6875 -12.89062,4.6875 -11.24999,0 -17.03125,-6.22397 -17.34375,-18.67187 V 188.25 Z m 154.6875,27.65625 c -10.2604,0 -18.30729,3.82813 -24.14062,11.48437 l -0.85938,-9.92187 h -24.6875 V 302 h 26.32813 v -59.6875 c 2.5,-4.0625 6.32813,-6.09375 11.48437,-6.09375 4.53125,0 7.65626,1.01563 9.375,3.04687 1.71875,1.97917 2.57813,5.10418 2.57813,9.375 V 302 H 611.375 v -54.45312 c -0.15625,-10.57291 -2.42188,-18.48959 -6.79688,-23.75 -4.32291,-5.26042 -10.88542,-7.89063 -19.6875,-7.89063 z m 78.4375,0 c -8.28124,0 -15.49479,1.77084 -21.64062,5.3125 -6.14583,3.54166 -10.85938,8.6198 -14.14062,15.23437 -3.28125,6.5625 -4.92188,14.06251 -4.92188,22.5 l 0.0781,4.45313 c 0.57292,12.34374 4.50522,22.13542 11.79688,29.375 7.29166,7.18749 16.95314,10.78125 28.98438,10.78125 12.49998,0 22.39584,-3.85417 29.6875,-11.5625 7.34374,-7.76041 11.01562,-18.22918 11.01562,-31.40625 v -0.9375 c 0,-13.48957 -3.64584,-24.14063 -10.9375,-31.95313 -7.29166,-7.86457 -17.26564,-11.79687 -29.92188,-11.79687 z m 243.125,0 c -8.12499,0 -15.15625,1.77084 -21.09374,5.3125 -5.9375,3.48958 -10.4948,8.51563 -13.67188,15.07813 C 868.5625,242.80729 867,250.33334 867,258.875 v 1.09375 c 0,13.64582 3.54167,24.32292 10.625,32.03125 7.08333,7.70833 16.77085,11.5625 29.0625,11.5625 10.46874,0 19.01042,-2.96876 25.625,-8.90625 6.66666,-5.93749 10,-13.54168 10,-22.8125 H 917.625 c 0.0521,3.59375 -0.9375,6.40625 -2.96875,8.4375 -2.03125,1.97916 -4.89584,2.96875 -8.59375,2.96875 -4.42708,0 -7.65625,-1.64063 -9.6875,-4.92188 -2.03125,-3.28124 -3.04688,-9.16667 -3.04688,-17.65624 10e-6,-4.84375 0.1823,-8.64584 0.54688,-11.40626 1.14583,-8.6979 5.13022,-13.04687 11.95312,-13.04687 3.59375,0 6.45834,1.17188 8.59376,3.51563 2.13541,2.34374 3.20312,5.70312 3.20312,10.07812 h 24.6875 c 0,-10.41666 -3.22917,-18.67188 -9.6875,-24.76562 -6.45833,-6.09375 -15.1823,-9.14063 -26.17188,-9.14063 z m 126.17188,0 c -10.7812,0 -19.6615,2.55209 -26.6406,7.65625 -6.9271,5.10416 -10.39065,11.7448 -10.39065,19.92188 h 26.32815 c 0,-6.14583 3.125,-9.21876 9.375,-9.21876 6.7187,0 10.0781,3.88022 10.0781,11.64063 v 4.45313 h -8.125 c -12.9167,0 -22.7604,2.34375 -29.5313,7.03124 -6.77078,4.6875 -10.1562,11.6146 -10.1562,20.78126 0,7.29165 2.78646,13.35937 8.3594,18.20312 5.5729,4.79166 12.3437,7.1875 20.3125,7.1875 8.6979,0 15.4687,-3.04688 20.3125,-9.14062 0.7291,3.33332 1.5625,5.85937 2.5,7.57812 h 26.3281 v -1.32812 c -2.2917,-4.11458 -3.4896,-10.0521 -3.5938,-17.8125 V 245.4375 c -0.1562,-9.16666 -3.3593,-16.38021 -9.6093,-21.64062 -6.25,-5.26042 -14.7657,-7.89063 -25.5469,-7.89063 z m -204.84375,1.5625 V 302 h 26.40625 v -84.53125 z m 127.03125,0 V 302 h 26.40625 v -84.53125 z m -291.48438,18.75 c 9.6875,0 14.53126,7.57814 14.53126,22.73437 v 2.65626 c -0.20834,14.42706 -5.00001,21.64062 -14.375,21.64062 -4.79167,0 -8.41147,-1.82292 -10.85938,-5.46875 -2.44791,-3.64583 -3.67188,-9.37501 -3.67188,-17.1875 l 0.0781,-4.76563 c 0.72917,-13.0729 5.4948,-19.60937 14.29687,-19.60937 z m 370.39058,28.20313 h 7.6563 v 13.51562 c -0.9375,1.77083 -2.5,3.35938 -4.6875,4.76562 -2.1354,1.40625 -4.8438,2.10938 -8.125,2.10938 -2.5,0 -4.5573,-0.72917 -6.1719,-2.1875 -1.6146,-1.51042 -2.4219,-3.46354 -2.4219,-5.85938 0,-8.22915 4.5834,-12.34374 13.75,-12.34374 z M 430.59375,338.25 V 452 h 27.42187 v -45.3125 h 44.21876 V 385.59375 H 458.01562 V 359.42188 H 506.6875 V 338.25 Z M 552.625,365.90625 c -8.28124,0 -15.4948,1.77084 -21.64062,5.3125 -6.14583,3.54166 -10.85938,8.6198 -14.14063,15.23437 -3.28125,6.5625 -4.92187,14.06251 -4.92187,22.5 L 512,413.40625 c 0.57292,12.34374 4.50522,22.13542 11.79688,29.375 7.29165,7.18749 16.95313,10.78125 28.98437,10.78125 12.49999,0 22.39584,-3.85417 29.6875,-11.5625 7.34374,-7.76041 11.01563,-18.22918 11.01563,-31.40625 v -0.9375 c 0,-13.48957 -3.64585,-24.14063 -10.9375,-31.95313 -7.29166,-7.86457 -17.26564,-11.79687 -29.92188,-11.79687 z m 96.71875,0 c -7.91666,0 -14.08855,4.14063 -18.51563,12.42187 l -0.85937,-10.85937 h -24.6875 V 452 h 26.32813 v -53.51562 c 2.34374,-5.20833 7.65625,-7.8125 15.9375,-7.8125 l 8.67187,0.625 0.46875,-24.45313 c -2.08333,-0.625 -4.53125,-0.9375 -7.34375,-0.9375 z m 156.48437,0 c -10.10415,0 -18.15104,3.82813 -24.14062,11.48437 l -0.85938,-9.92187 h -24.6875 V 452 h 26.32813 v -58.82812 c 2.65625,-4.63542 6.51042,-6.95313 11.5625,-6.95313 3.95833,0 6.64063,0.98959 8.04687,2.96875 1.40625,1.97916 2.10938,5.1823 2.10938,9.60938 V 452 h 26.40625 v -57.73438 l -0.0781,-1.09374 c 2.55209,-4.63542 6.4323,-6.95313 11.64063,-6.95313 3.85416,0 6.51042,0.98959 7.96875,2.96875 1.45833,1.97916 2.1875,5.13021 2.1875,9.45312 V 452 h 26.40625 V 397 C 878.25,376.27085 869.4479,365.90625 852.3125,365.90625 c -10.83332,0 -19.11459,4.2448 -24.84375,12.73437 -3.75,-8.48957 -10.96355,-12.73437 -21.64063,-12.73437 z m 120.70313,0 c -10.36457,0 -18.75001,2.52605 -25.15625,7.57813 -6.40624,4.99999 -9.60938,11.38021 -9.60938,19.14062 10e-6,4.375 1.1198,8.25521 3.35938,11.64062 2.23958,3.38542 5.4948,6.27605 9.76562,8.67188 4.27083,2.34375 9.68751,4.24479 16.25,5.70312 6.5625,1.45834 11.01563,2.86459 13.35938,4.21876 2.34375,1.35416 3.51562,3.15104 3.51562,5.39062 10e-6,2.34375 -0.91146,4.24479 -2.73437,5.70312 -1.77083,1.45834 -4.45313,2.1875 -8.04687,2.1875 -3.90625,10e-6 -7.10938,-0.88541 -9.60938,-2.65624 -2.5,-1.82292 -3.80208,-4.68751 -3.90625,-8.59376 h -24.60937 c 0,4.94792 1.58854,9.66147 4.76562,14.14063 3.17708,4.47916 7.60417,8.02084 13.28125,10.625 5.67708,2.60416 12.13542,3.90625 19.375,3.90625 10.88541,0 19.73959,-2.42188 26.5625,-7.26562 6.87499,-4.84375 10.3125,-11.1198 10.3125,-18.82813 0,-11.30207 -6.35418,-19.14063 -19.0625,-23.51563 -3.80208,-1.30208 -8.22917,-2.42187 -13.28125,-3.35937 -4.99999,-0.9375 -8.64584,-2.13542 -10.9375,-3.59375 -2.29166,-1.45833 -3.4375,-3.35938 -3.4375,-5.70312 0,-2.29167 0.9375,-4.19271 2.8125,-5.70313 1.875,-1.5625 4.19271,-2.34375 6.95312,-2.34375 7.13541,0 10.70313,3.38542 10.70313,10.15625 h 26.40625 c 0,-8.22916 -3.38542,-14.8698 -10.15625,-19.92187 -6.77083,-5.05208 -15.72918,-7.57813 -26.875,-7.57813 z m -261.25,1.5625 v 54.76563 c 0,10.10415 2.3698,17.86458 7.10937,23.28124 4.79167,5.36458 11.82293,8.04688 21.09376,8.04688 9.47915,0 17.00521,-3.56772 22.57812,-10.70312 L 716.84375,452 h 24.6875 v -84.53125 h -26.48437 v 59.29687 c -2.55209,4.32292 -6.84897,6.48438 -12.89063,6.48438 -7.03124,0 -10.54687,-3.6198 -10.54687,-10.85938 v -54.92187 z m -112.65625,18.75 c 9.68749,0 14.53125,7.57814 14.53125,22.73437 v 2.65626 c -0.20833,14.42706 -5.00001,21.64062 -14.375,21.64062 -4.79166,0 -8.41146,-1.82292 -10.85937,-5.46875 -2.44792,-3.64583 -3.67188,-9.37501 -3.67188,-17.1875 l 0.0781,-4.76563 c 0.72917,-13.0729 5.49481,-19.60937 14.29688,-19.60937 z" /></g></svg>
